<?xml version="1.0" standalone="no"?>
<!DOCTYPE svg PUBLIC "-//W3C//DTD SVG 20010904//EN"
 "http://www.w3.org/TR/2001/REC-SVG-20010904/DTD/svg10.dtd">
<svg version="1.0" xmlns="http://www.w3.org/2000/svg"
 width="784.000000pt" height="784.000000pt" viewBox="0 0 784.000000 784.000000"
 preserveAspectRatio="xMidYMid meet">
<metadata>
Created by potrace 1.14, written by Peter Selinger 2001-2017
</metadata>
<g transform="translate(0.000000,784.000000) scale(0.100000,-0.100000)"
fill="#000000" stroke="none">
<path d="M1939 7756 c-2 -2 -35 -7 -74 -10 -94 -9 -153 -18 -230 -37 -22 -5
-51 -12 -65 -15 -14 -3 -61 -17 -105 -32 -44 -14 -82 -27 -85 -27 -38 -10
-195 -79 -198 -87 -2 -4 -12 -8 -23 -8 -10 0 -19 -4 -19 -10 0 -5 -3 -9 -7 -8
-5 1 -19 -4 -33 -12 -14 -8 -38 -22 -55 -31 -16 -10 -41 -24 -55 -31 -14 -7
-29 -16 -35 -21 -5 -4 -56 -41 -113 -83 -57 -42 -116 -88 -132 -103 -119 -112
-156 -149 -240 -247 -118 -138 -250 -360 -325 -549 -15 -38 -31 -79 -36 -90
-39 -91 -100 -381 -103 -490 l-1 -40 1105 -1 c608 -1 1120 -4 1139 -8 19 -4
42 -11 51 -16 10 -5 20 -6 24 -3 3 3 6 0 6 -7 0 -7 3 -11 6 -7 4 3 27 -8 53
-25 144 -98 211 -234 198 -401 -15 -203 -164 -362 -367 -392 -25 -4 -48 -9
-52 -11 -5 -3 -8 -1 -8 5 0 6 -11 6 -30 1 -17 -5 -30 -5 -30 0 0 5 -13 5 -30
0 -17 -5 -30 -5 -30 0 0 5 -13 5 -30 0 -16 -5 -30 -5 -30 -1 0 4 -22 5 -49 1
-27 -3 -58 -3 -70 1 -11 5 -23 4 -26 -1 -3 -6 -15 -6 -30 0 -14 5 -27 5 -30 0
-3 -5 -18 -5 -35 0 -17 5 -30 5 -30 0 0 -5 -13 -5 -30 0 -17 5 -30 5 -30 0 0
-5 -13 -5 -30 0 -19 5 -30 5 -30 -1 0 -6 -5 -7 -11 -4 -6 4 -43 7 -84 7 -41 0
-78 -3 -84 -7 -6 -3 -11 -2 -11 4 0 6 -11 6 -30 1 -16 -5 -30 -5 -30 -1 0 4
-22 5 -49 1 -27 -3 -58 -3 -70 1 -11 5 -23 4 -26 -1 -3 -6 -15 -6 -30 0 -14 5
-27 5 -30 0 -3 -5 -18 -5 -35 0 -17 5 -30 5 -30 0 0 -5 -13 -5 -30 0 -17 5
-30 5 -30 0 0 -5 -13 -5 -30 0 -19 5 -30 5 -30 -1 0 -6 -5 -7 -11 -4 -14 9
-154 9 -168 0 -6 -3 -11 -2 -11 4 0 6 -11 6 -30 1 -16 -5 -30 -5 -30 -1 0 4
-22 5 -49 1 -27 -3 -58 -3 -70 1 -11 5 -23 4 -26 -1 -3 -6 -15 -6 -30 0 -14 5
-27 5 -30 0 -3 -5 -18 -5 -35 0 -17 5 -30 5 -30 0 0 -5 -13 -5 -30 0 -17 5
-30 5 -30 0 0 -5 -13 -5 -30 0 -19 5 -30 5 -30 -1 0 -6 -5 -7 -11 -4 -14 9
-154 9 -168 0 -6 -3 -11 -3 -11 2 0 7 -64 9 -80 3 -3 -1 -13 -2 -22 -1 -16 2
-17 -5 -13 -56 2 -32 7 -69 11 -83 3 -14 6 -32 6 -40 0 -8 5 -35 10 -60 6 -25
12 -54 13 -65 2 -11 4 -20 5 -20 1 0 3 -9 5 -19 3 -17 14 -57 20 -76 1 -3 5
-18 9 -35 8 -33 15 -50 40 -108 9 -21 16 -42 16 -48 0 -38 215 -428 241 -437
5 -2 9 -8 9 -14 0 -28 343 -398 369 -398 5 0 21 -11 37 -25 16 -14 34 -29 39
-33 6 -4 26 -19 45 -33 62 -46 232 -145 323 -187 164 -77 432 -157 595 -177
23 -3 61 -8 85 -11 23 -3 112 -7 197 -9 191 -5 209 -8 299 -53 95 -48 177
-146 208 -252 16 -53 26 -176 15 -194 -3 -5 -6 -21 -7 -35 -5 -52 -57 -145
-114 -201 -52 -52 -152 -112 -193 -116 -10 -1 -19 -2 -20 -4 -8 -6 -123 -12
-170 -9 -23 1 -229 -11 -256 -15 -15 -3 -47 -8 -72 -11 -25 -3 -53 -8 -63 -11
-11 -4 -31 -8 -45 -10 -44 -8 -67 -12 -67 -14 0 -1 -10 -3 -23 -6 -34 -6 -148
-42 -222 -71 -36 -13 -69 -24 -74 -23 -5 1 -12 -2 -15 -7 -3 -4 -31 -19 -61
-33 -218 -98 -457 -272 -645 -470 -84 -88 -209 -253 -251 -330 -10 -19 -24
-42 -31 -50 -21 -27 -110 -213 -138 -290 -15 -41 -31 -84 -36 -95 -4 -11 -18
-58 -30 -105 -12 -47 -24 -92 -26 -100 -3 -8 -7 -24 -9 -35 -3 -25 -12 -86
-21 -145 -4 -25 -7 -61 -7 -80 l-1 -35 2930 1 c1612 0 2962 4 3000 7 266 25
495 90 745 210 58 28 107 54 110 57 3 3 34 23 70 44 60 37 125 82 177 124 11
9 36 28 55 42 107 80 321 321 414 465 42 65 124 206 124 213 0 2 14 34 31 70
27 59 75 178 77 192 0 3 5 17 11 32 6 15 12 38 13 50 2 13 7 28 10 34 4 6 10
24 12 40 9 48 15 75 20 92 8 29 17 88 31 206 6 51 4 58 -9 53 -8 -3 -18 -2
-21 3 -3 5 -15 6 -28 1 -12 -5 -31 -5 -42 -1 -11 4 -27 4 -35 0 -8 -4 -24 -6
-35 -3 -21 4 -82 6 -100 3 -5 -1 -32 -1 -60 0 -27 0 -57 0 -65 0 -8 0 -24 0
-35 0 -53 2 -71 2 -77 0 -20 -4 -99 -2 -105 3 -3 4 -13 2 -23 -3 -10 -5 -20
-7 -23 -3 -6 5 -67 7 -92 3 -5 -1 -30 -1 -55 -1 -25 1 -51 1 -57 1 -7 0 -21 0
-30 0 -10 0 -34 0 -53 -1 -19 -1 -41 -1 -47 0 -7 1 -20 1 -28 1 -8 0 -23 0
-32 0 -10 0 -34 0 -53 -1 -19 -1 -41 -1 -47 0 -7 1 -20 1 -28 1 -8 0 -23 0
-32 0 -10 0 -34 0 -53 -1 -19 -1 -41 -1 -47 0 -13 1 -30 1 -55 1 -7 0 -31 0
-53 1 -22 0 -43 0 -47 -1 -22 -4 -99 -2 -105 3 -3 4 -13 2 -23 -3 -10 -5 -20
-7 -23 -3 -6 5 -67 7 -92 3 -5 -1 -32 -1 -60 0 -27 0 -57 0 -65 0 -8 0 -24 0
-35 0 -53 2 -71 2 -77 0 -20 -4 -99 -2 -105 3 -3 4 -13 2 -23 -3 -10 -5 -20
-7 -23 -4 -3 3 -41 7 -85 9 -145 5 -275 87 -346 216 -55 101 -72 213 -45 312
6 23 11 43 10 45 -1 1 10 24 24 52 33 65 120 151 186 185 57 28 67 32 139 43
25 4 534 7 1133 7 l1088 0 -6 60 c-11 106 -50 307 -66 338 -6 9 -7 17 -5 17 8
0 -61 193 -95 268 -16 34 -28 63 -27 65 5 9 -163 285 -197 323 -5 7 -19 24
-30 40 -32 44 -66 85 -120 143 -77 83 -97 102 -160 156 -32 28 -63 55 -69 60
-6 6 -27 22 -46 35 -19 13 -37 27 -40 30 -7 8 -129 90 -134 90 -2 0 -33 17
-67 38 -138 82 -344 164 -519 208 -8 2 -33 8 -55 14 -22 5 -60 12 -85 16 -25
3 -47 8 -50 9 -9 6 -129 17 -210 20 -41 2 -75 4 -75 5 0 6 -57 4 -61 -1 -2 -4
-18 -4 -34 1 -18 5 -32 5 -36 -1 -3 -5 -10 -7 -15 -3 -5 3 -22 7 -37 10 -46 7
-57 9 -69 17 -7 5 -13 6 -13 3 0 -3 -23 6 -51 21 -110 55 -204 180 -228 303
-17 89 -2 216 32 258 5 6 6 12 2 12 -12 0 67 104 103 135 49 43 126 84 180 96
26 6 119 12 207 14 88 2 174 6 190 9 17 3 53 8 81 11 28 3 59 7 70 9 19 4 153
33 185 41 113 25 391 138 462 187 15 11 27 17 27 14 0 -7 236 151 261 174 9 8
32 26 50 40 64 47 245 235 317 328 168 218 304 491 367 737 5 17 9 35 11 40 4
14 10 45 18 85 3 19 8 46 11 60 8 42 15 93 20 148 l4 52 -2948 0 c-1621 0
-2950 -2 -2952 -4z"/>
</g>
</svg>
